<svg xmlns="http://www.w3.org/2000/svg">
    <symbol id="ico-close" viewBox="0 0 16 16">
        <rect width="16" height="16" fill="none"/>
        <path d="M7.778,9.192,1.414,15.557,0,14.142,6.364,7.778,0,1.414,1.414,0,7.778,6.364,14.142,0l1.415,1.414L9.192,7.778l6.364,6.364-1.415,1.415Z"/>
    </symbol>
    <symbol id="ico-menu" viewBox="0 0 16 16">
        <rect width="16" height="16" fill="none"/>
        <path d="M0,14V12H8v2ZM0,8V6H16V8ZM0,2V0H16V2Z"/>
    </symbol>
    <symbol id="ico-user" viewBox="0 0 24 24">
        <path d="M0,0H24V24H0Z" fill="none"/>
        <path d="M19,3H14.82A2.988,2.988,0,0,0,9.18,3H5A2.006,2.006,0,0,0,3,5V19a2.006,2.006,0,0,0,2,2H19a2.006,2.006,0,0,0,2-2V5A2.006,2.006,0,0,0,19,3Zm-7-.25a.767.767,0,1,1-.55.25A.749.749,0,0,1,12,2.75ZM19,19H5V5H19ZM12,6a3,3,0,1,0,3,3A3.009,3.009,0,0,0,12,6Zm0,4a1,1,0,1,1,1-1A1,1,0,0,1,12,10ZM6,16.47V18H18V16.47c0-2.5-3.97-3.58-6-3.58S6,13.96,6,16.47ZM8.31,16A7.011,7.011,0,0,1,12,14.88,6.982,6.982,0,0,1,15.69,16Z"/>
    </symbol>
    <symbol id="ico-arrow" viewBox="0 0 9.4 6.1">
        <path d="M4.7,6.1,0,1.4,1.4,0,4.7,3.3,8,0,9.4,1.4Z"/>
    </symbol>
    <symbol id="ico-arrow-back" viewBox="0 0 16 16">
        <path d="M8,0,6.545,1.455l5.506,5.506H0V9.039H12.052L6.545,14.545,8,16l8-8Z" />
    </symbol>
    <symbol id="ico-chat" viewBox="0 0 24 24">
        <path d="M0,0H24V24H0Z" fill="none"/>
        <path d="M4,4H20V16H5.17L4,17.17V4M4,2A2,2,0,0,0,2.01,4L2,22l4-4H20a2.006,2.006,0,0,0,2-2V4a2.006,2.006,0,0,0-2-2ZM6,12h8v2H6ZM6,9H18v2H6ZM6,6H18V8H6Z" />
    </symbol>
    <symbol id="ico-phone-tube" viewBox="0 0 24 24">
        <path d="M0,0H24V24H0Z" fill="none"/>
        <path d="M6.54,5a12.312,12.312,0,0,0,.45,2.59l-1.2,1.2A14.826,14.826,0,0,1,5.03,5H6.54M16.4,17.02a12.753,12.753,0,0,0,2.6.45v1.49a15.426,15.426,0,0,1-3.8-.75l1.2-1.19M7.5,3H4A1,1,0,0,0,3,4,17,17,0,0,0,20,21a1,1,0,0,0,1-1V16.51a1,1,0,0,0-1-1,11.407,11.407,0,0,1-3.57-.57.839.839,0,0,0-.31-.05,1.024,1.024,0,0,0-.71.29l-2.2,2.2a15.149,15.149,0,0,1-6.59-6.59l2.2-2.2a1,1,0,0,0,.25-1.02A11.36,11.36,0,0,1,8.5,4,1,1,0,0,0,7.5,3Z" />
    </symbol>
    <symbol id="ico-mail" viewBox="0 0 24 24">
        <path d="M0,0H24V24H0Z" fill="none"/>
        <path d="M22,6a2.006,2.006,0,0,0-2-2H4A2.006,2.006,0,0,0,2,6V18a2.006,2.006,0,0,0,2,2H20a2.006,2.006,0,0,0,2-2ZM20,6l-8,4.99L4,6Zm0,12H4V8l8,5,8-5Z" />
    </symbol>
</svg>