<svg xmlns="http://www.w3.org/2000/svg" width="338.552" height="190.935" viewBox="0 0 338.552 190.935">
  <g id="map" transform="translate(-17.75 -158.75)">
    <path id="center" d="M121.221,215.479a5.414,5.414,0,0,1-2.782,1.736,3.651,3.651,0,0,1-3.526-2c-1.159-1.355-2.389-1.794-3.413-3.371-.31-.481-.046-.92-.464-1.413-.364.2-.418.887-.874.836-.569-.046-.983-.652-1.556-.7-.8-.063-.966.615-1.882.544-2.054-.159-.686-4.425-2.631-4.575-.23,0-.381.418-.494.418-.912-.071-.929-1.338-1.845-1.409-.343-.025-.7.176-.8-.063-.117,0-.209-.247-.192-.473-.071-.581.368-1.811-.418-1.874-.456-.033-.728.519-1.3.473-.23,0-.326-.255-.3-.6l-.1-.238c-.912-.071-1.3-1.016-1.87-1.062-.23,0-.368.318-.6.3-.343-.025-.544-.385-.623-.836-.23,0-.6.3-.837.28-.682-.05-.092-1.731-1.464-1.836-.8-.063-1.807,1.008-3.062.912-.456-.038-.527-.619-.966-.882-1.443-.686-1.933-.263-3.719-.979-.448-.151-.276-.836-.945-1.108-.222-.134-.46-.038-.686-.054a14.174,14.174,0,0,0-.477,1.673c-.025.347-.038.46-.063.8-.046.565-1.719,1.673-2.3,1.673a3.2,3.2,0,0,0-.226-.243l.213.247c-.343-.029-.418-.606-.644-.627s-.368.318-.6.3c-.272.556-.615.527-1.2.711-.837.4-.477,1.673-2.3,1.547-.326,1.255-.724,1.9-1.029,2.927-.167.677.272.941,0,1.5-.255.322-.837.167-1.046.146-.063.8.837.987.774,1.9-.025.343-.276.556-.3.9l-.142.33c-.351.088-.272.556-.615.531-1.485-.117-1.673-2.2-2.811-2.288-.573-.046-.418.882-.418,1.112-.092,1.142-2.384,1.079-2.51,2.681-.063.8.264,1.054.837,1.1a.837.837,0,0,0,.837-.418c.418.606.69,1.434,1,1.92.64.623,2.154.418,2.054,1.673-.046.569-.544,1.108-.686,1.443l.033,1.008v.13c-.176.188-.339.33-.489.322s-.314-.372-.314-.372c-.59.184-1.569.912-1.611,1.485-.071.912.707,1.2,1.017,1.673.418.489.033,1.142.109,1.5-.364.318-.418.811-.657,1.1-.264.439-1.071.489-1.117,1.062-.092,1.142.837.87,1.159,1.355.393.836-.117,1.485.418,1.986.418.381,1.916.493,1.874,1.066-.029.339-.084,1.029-.1,1.255-.042.573-.3.9,0,1.5.184.59.9.3,1.079.887.389.949,1.063,2.614,1.063,2.614a10.925,10.925,0,0,0,.6,2.576c0-.23.029-.343.372-.318,1.142.088,1.167,1.255,2.426,1.338.682.054,1.054-.263,1.623-.217a1.406,1.406,0,0,1,.556.272c.079-1.029,1.761-1.932,2.092-3.17l2.4.184c.573.046,1.15,1.472,2.046,1.773a4.437,4.437,0,0,0,.439-1.234s.038-.456.071-.912l2.288-1.317c.464-.079.711-.289,1.171-.255.385-.544,1.673-.673,1.749-1.815.126-1.6.18-2.288.284-3.659a1.342,1.342,0,0,1,1.012-1.183H93.7c1.188-.485,3.878-1.079,3.765-2.7,0-.226.255-.322.389-.544l.033-.456c-.561-.159-.9-.3-.837-1.1l.054-.314s.075-.151.063-.159c.795-1.761,5.246-.13,5.777-2.865.686.054.987-.836,1.443-.8s.51.836.966.878c.916.071,1.406-.351,1.489-1.376l1.255.1a.686.686,0,0,1,.448.146v-.113a6.694,6.694,0,0,0,1.468.347c1.025.075,1.46-1.037,2.146-.983.912.071.469,1.3.912,1.564a4.82,4.82,0,0,0,1.79.6c0-.113.372-.314.607-.418.36-.2.418-.774.874-.836.694-.063,3.485.962,3.593-.418.163-2.058,1.033-2.906,1.422-4.947Z" transform="translate(-24.812 41.802)" fill="#ffbe08" stroke="#fff" stroke-linejoin="round" stroke-width="0.5" fill-rule="evenodd"/>
    <path id="ural" d="M287.3,211.037c-.8-.063-2.815-.795-2.753-1.6a1.723,1.723,0,0,1,.527-.878l.054-2.175c-.87-.648-1.974-1.192-1.87-2.564.117-1.485.151-1.945.243-3.082s-.385-.954-.9-1.673a38.668,38.668,0,0,1-.5-3.948c.042-.573.72-.418,1.071-.493a2.388,2.388,0,0,0,.925-1.535h.117l-.1-.238c0-.226-.071-.581-.063-.694.6-.3.628-.64.678-1.326.109-1.372-.9-1.673-1.305-2.4-.335-.142-.238.1-.924.042-1.146-.088-3.05-2.191-2.962-3.346.222-2.856,3.326-1.351,3.56-4.324.138-1.828-1.414-2.509-1.334-3.551.088-1.142,1.849-.084,1.778-2.162,0-1.38-2.092-.966-2.012-2.225.029-.343-.08-.464.18-.79-.694.063-1.619.1-1.77.552,1.887,2.329.059,2.191-1.962.079-.51.648-2.435,1.761,1.305,3.893,0,0,1.539,2.417.464,2.927-.661-.418-.694-1.434-1.334-2.058a3.279,3.279,0,0,1-2.7-2.279c.021-1.723,1.017-2.681,1.694-4.006a8.4,8.4,0,0,0,.247-3.2c-1.389-1.372-1.025,4.286-2.263,3.96-2.673.368-2.744,1.28-3.062,2.4-.607,1.907,1.1,5.018-.552,5.591a13.537,13.537,0,0,0-1.452,3.91c-.159,2.058-.69,2.927,3.163,2.2,1.573.468,2.251,2.129,2.439,4.1s-1.364,1.255-1.673,2.509c-.23,1.476,2.338,2.48,2.2,2.814-1.38,0-2.8-1.025-2.715-2.049a8.621,8.621,0,0,1,1.3-3.346c-1.075-1-.561-3.149-3.1-3-2.092.067-2.4,1.3-2.158,5.575-2.372.966-1.8,1.012-2.464,2.112-1.945,2.835-3.6.418-4.489,2.982-1.569-1.961-4.041-1.234-3.915-2.831.063-.8-1.924-1.878.469-1.577,1.364.222.364,2.672,2.422,2.835,1.611,0,2.694-3.584,5.342-5.1.837-3.5,3.079.355.966-4.985-.975-2.258,1.782-6.641,2.97-8.619,1.2-2.091-1.012-1.8-.117-4.379.862-2.233,1.757-.418,2.815-3.689.473-1.673.054-2.179-1.941-3.141-1.87-1.062-1.774-2.321-3.2-.247-.51.648-1.92,5.483-5.819,5.294-2.451,1.991,1.167,2.735-1,3.944-.54,2.488-3.794,2.927-1.5,4.483,1.422.916.506,2.338,1.234,3.316,0,0,.28,2.321-1.1,2.325-1.615.1-2.447-3.981-3.84-6.737-.4.661-1.339.933-1.4,1.731s.837,1.33.74,2.359c-.109,1.372-1.368,1.255-1.456,2.413-.038.46.736.861.682,1.547-.159,2.058-3.564,2.927-4.97,3.3-2.464.611-3.7,1.777-5.823,2.417-1.749.326-2.456,1.995-4.183,1.861-.117,0-.2-.477-.184-.59l-.573-.046c-1.715-.13-2.334,1.89-2.8,3.463-.038.456-1.5,1.493-1.874,1.924-1.255,1.28-1.255,2.89-2.092,4.663-.272.552-1.117,1.062-1.171,1.748l-.13.222a51.554,51.554,0,0,1-3.179,5.386,6.858,6.858,0,0,1-2.041,2.6c-.724.418-2.43.155-2.51,1.3s.59,1.309.527,2.091c-.046.573-.749.749-.795,1.317-.025.343.418.606.376,1.066-.079,1.029-1.38,1.5-2.292,1.43-1.372-.109-.6,1.79-1.631,1.71a7.811,7.811,0,0,0-1.008-.309c-1.033-.079-1.355,1.158-1.857,1.7-.372.314-.8-.063-1.255,0-.837.167-1.744,1.706-1.811,2.622s2.092,2.576,3.125,2.656c.209,0,.448-.255.837-.272-.038,0-.067.033-.142.1-.079,1.029-.669,1.213-.749,2.242a1.844,1.844,0,0,0,.243,1.284c-.5.535-1.97.188-2.539.146-.159.565-.3.895-.757.861-.573-.046-.632-.74-.728-.979-.46-.033-.59.184-1.029-.079.272-.552.732-.519.778-1.087s-.644-.627-1.1-.661c-1.025-.084-1.519.339-1.6,1.372-.142,1.823.243,2.773,1.615,2.881.686.054.878.527,1.673.59a4.184,4.184,0,0,0,2.092-.3l.573.046c-.029.343-1.506,3.1-1.849,3.074s-.657-.418-1-.418a5.434,5.434,0,0,0-2.167,1.209c-1,1.071-.23,1.48-1.255,2.664-.636.757-1.46,1.037-1.539,2.066a.661.661,0,0,0,.632.74l.8.063c.339.025,1.673.59,1.615,1.388a9.177,9.177,0,0,1-1.109.945l-.038.46-.059.134c.443-.535,2.556.289,2.556.289.535-1,.46-2.953,1.719-2.852,1.142.088,1.518,1.15,2.661,1.255.343.025.477-.192.5-.531.038-.46-1.4-1.255-1.59-1.736l.046-.573c.569.046.8.067,1.046-.146-.2-.36-1-.535-.958-1a1.355,1.355,0,0,1,1.355-1.158,9.371,9.371,0,0,1,2.51,1.577l2.744.213c1.368.1,2.309,1.33,3.715.979l.916.071a.247.247,0,0,0,.209.247c.573.042.966-.615,1.539-.569.686.054.862.757,1.071,1a1.038,1.038,0,0,1,.837-.28l4.342.339a.761.761,0,0,0,.837-.627,1.96,1.96,0,0,0,1.619-.1v-.134a.365.365,0,0,0,.117.025,3.456,3.456,0,0,1,2.238.749c.661.418.807,1.443,1.723,1.514,1.029.084,1.255-1.51,1.355-2.651.071-.916.732-.519,1.092-.719.368-.314.23-1.476.485-1.8.766-.979,3.347-.418,2.782-1.74-.385-.949-.3-2.091-1.1-2.154-.46-.038-.381.418-.611.418-.456-.033-.523-.615-.506-.836.063-.8,1.318-.7.749-2.237.418-.774,1.577-2.509,2.489-2.451.343.025.418.489.4.836-.038.46-.5.54-.523.765-.033.456,3.066,1.966,3.765,2.016.46.038.837-.28,1.284-.243,1.029.079,1.539.924,2.472.765a3.131,3.131,0,0,0,2.322-1.773l.686.054c.644-.87.707-1.673,1.217-2.317.661-1.1,1.882-.544,2.535-1.531.887-1.079,1.506-4.6,3.347-4.454a6.478,6.478,0,0,1,1.9.728l1.941.146a4.064,4.064,0,0,0,2.794,1.025c1.832.138,1.954,1.531,3.552,1.673,1.029.079,1.619-1.6,3.1-1.485.8.063,1.067,1.121,1.866,1.179.151-1.94,4.079-.715,3.932-3.254-1.795-.142-2.694-1.761-2.585-3.655h0v-.117a1.072,1.072,0,0,0,0,.113c.347-.084.452.038.812-.163s.293-.782.452-1.342c.3-.9,1.573-1.029,1.652-2.058s-.682-1.547-.628-2.233c.151-1.945,2.171-1.326,2.33-3.383C287.415,212.426,287.244,211.719,287.3,211.037Z" transform="translate(-106.367 60.759)" fill="#ffbe08" stroke="#fff" stroke-linejoin="round" stroke-width="0.5" fill-rule="evenodd"/>
    <g id="DV" transform="translate(-2.102 -282.534)">
      <path d="M740.424,322.029c-.954-1-.6-2.576-1.673-3.693l.31-2.509c.724-1.9,3.137,1.05,5.25.523-2.757-1.48-2.7-2.279-4.576-3.233-2.991-1.493-6.275-3.475-8.174-5.809-2.711-3.542-2.711-5.039-6.693-6.959-.326,1.255,1.5,2.877-1,2.564-1.715-.13,2.238,2.246,2.51,4.571.619.966.581,1.422,1.2,2.392l.569.042c3.288.6,7.387,7.013,8.785,11.371,4.543,2.2,4.355,7.582,8.739,10.338,0-1.255-1.573-3.454-1.067-3.99a2.521,2.521,0,0,1,1.907-.887c.8.063,1.1.661,2.33,1.1C747.861,323.987,741.955,326.057,740.424,322.029Z" transform="translate(-403.867 264.49)" fill="#65b8df" stroke="#fff" stroke-linejoin="round" stroke-width="0.5" fill-rule="evenodd"/>
      <path d="M622.535,103.225c-.535-2-1.426-.916-2.778-2.748-.519-.728.126-3.09.837-3.27,3.535-1.1-2.259-.519-2.958-4.826-.209-1.74-.552-1.765.31-2.509,3.916-3.028-2.568-3.881-3.255-5.437-3.451-7.394,1.518,1.154.891-4.069a3.394,3.394,0,0,0-2.815-.79c-1.351-.339-2.142-.514-2.652-1.359a4.32,4.32,0,0,1-.418-1.874s-.711-1.2-1.757.418c-.5.535.962,2.375-.619,2.024-1.447-.573-3.623-6.608-5.509-8.937-1.15-1.468.054-2.179,1.552-2.3.285-.665.084-1.025-.774-1.782l.2-2.63c.54-.991,1.594,1.736,2.28,1.79,1.4-.238-1.284-2.748-1.188-4,.623-6.5,6.045-3.785,5.539-4.629-1.134-1.673-2.51-6.273-3.677-13.244a.878.878,0,0,1-.126-.079c-.31-1.853-.485-4.036-.77-6.227-.264-1.058,2.8-1.966,2.928-3.68.079-1.029-.728-2.472-3.041-2.3-3.711.418-6.082-1.627-8.12,2.354-1.493,1.493-3.313-.259-1.983-1.075,1.347-1.045,3.07-1.025,2.928-3.45-.222-6-4.689-3.241-5.656-5.616,0-2.76,5.309,1.221,4.5-3.1-.146-2.538,1.075-1.982,1.866-1.807,3.614.836,2.226-2.012,3.732-2.124,2.309-.163,3.347-3.074,2.585-3.705-3.568,1.56-2.313-2.71-5.66-1.129-1.786.778,3.213-2.856-1.171-5.612-2.991,1.493-5.777,1.853-6.241,6.3a4.5,4.5,0,0,1,3.288.6c-.238,1.589-.155,1.94-1.866,1.807-1.033-.079-1.924-1.874-5.108-.836-4.217,3.923-9.818,4.981-13.5,9.409-1.017,1.3-2,3.525-3.15,5.043-1.795,2.388-3.418,3.985-2.878,4.487,1.719,1.514,1.774.836,3.472,1.192,1.548-.686,1.577,1.844,1.577,1.844-.732.519.08,1.961-2.363.836-1.033,1.414-2.259.97-3.455.075-.983-.652-.029,1.836-.745,3.617-.719,1.9-3.84,2.116-4.058,4.859a1.254,1.254,0,0,0,.071.581,7.851,7.851,0,0,0,2.016,3.6c1.477,3.216-3.213-3.011-4.966-1.192-1.364,1.255-.146-1.045-3.765-2.016-3.384-.836-5.982,2.982-6.107,4.6-.067.916-.883,5.437-4.4,3.346-2.9.351-4.066,1.982-4,1.071s1.385-3-2.631-1.585c-3.284.778-.2,5.386-1.836,5.834-.268.439-.1-3.224-.715-2.7a19.2,19.2,0,0,1-1.673,1.137c-.87-.644,1.585-1.146,1.092-2.216-2.2.289-4.873,3.525-7.467,2.865,2.46,2.375-.238,1.593-.707,4.659,2.163.284,1.6-2.86,2.418,1.455,2.669,1.129,1.209,2.162-.912,1.309-1.828,1.351,2.585,3.764-1,2.451-3.313-.259-1.895-.723-4.079,2.212-1.953,1.455-2.865-1.606-2.991,0-.109,1.372,2.384,6.273-.971,5.1-2.242-.753-3.765-2.016-3.539-4.763-.159-.928-2.28-.289-1.924-1.874-.95-1.108.418-2.509-4.183-2.392-.418,2.509-4.008-.2-5.162,1.322-.837.4.745,2.242.929,2.831.837,2.363-2.439,1.765-4.443,2.413-3.543,1.217-1.87-2.559-2.953-1.953l-3.719.514c-.732.519-2.552,1.756-2.928.92-.686-1.547-.644.87-3,.113a6.377,6.377,0,0,1-.335,1.351c-.038.456-.418.774-.7,1.556,1.339.565.711,1.2,1.309,2.4.577,1.426,1.7,1.744,2.531,2.957.619.836.075,1.961.577,2.927.305.485,1.326.677,1.255,1.593-.088,1.142-1.594,1.255-2.092,1.673l-1.92,3.99c-.046.573.5.962.456,1.531-.088,1.146-1.063.381-1.891.657-.7.176-1.761,1.932-2.828,2.308a19.584,19.584,0,0,1,2.51,10.543c-.088,1.142-1.565.912-1.882,2.041.678.167,1.7.36,1.765.941.176.7-.439,1.23-.272,2.045.113,1.505,1.991,2.455,1.878,3.939-.042.573-1.109.949-1.192,1.978-.1,1.255-.05.686-.2,2.63a6.3,6.3,0,0,0,2.058.159c.456.038.665.28,1.335.56,1.117.418,3.008-.222,2.928,1.033-.05.686-.519.765-.678,1.326,1.581.355,2.347.878,2.711,2.166.494.958.092,1.731.581,2.806.3.6,1.673.477,1.611,1.506-.075.912-.084,1.025-.1,1.255-.126,1.6.945,2.605,2.6,3.538a16.241,16.241,0,0,0-.766,2.467c-.18,2.288-.247,3.2-.418,5.37-.063.8-.142,1.828,1.23,1.936,2.4.188,3.347-3.074,5.283-2.927.573.046.7,1.322,1.732,1.4.356-1.581,1.9-2.267,2.51-3.944,1.042-3.024.155-4.931,3.811-4.646,2.51.192,1.59,3.224,3.765,3.4.8.063.941-.272,1.113-.949l1.138.088c.757.636.59,1.313.837,2.367.285.836,1.715,1.627,2.246,2.242,1.648,1.673,1.255,5.052,4.338,5.5-.188.268-.674,1.1.05,1.631.991.535.573.042,1.217.556s1.255.213.506.958c-.761.861.2,1.74,1.314.795,1-.958,1.443-.811,1.724,0,.418.836.711,1.209,1.213.669.494-.418.837-.167,1.192.895.5.962.682,1.552.418,1.991-.255.326.193.473.728.974s.837.87.151,1.05-.732.514-.092,1.138c.527.619.5.962,1.046,1.351a2.81,2.81,0,0,1,.837,1.213,9.553,9.553,0,0,1,3.8-1.543c4.6.125,4.773-.778,5.438-.611,4.982.962,10.207,10.681,13.081,12.17,1.77.941,3.1-1.368,5.154-1.209,1.761.138,3.045.33,3.865.418a4.815,4.815,0,0,1,.535.1c1.109.339.761.866,1.761,3.07.866,2.137,4.254,0,6.087-2.86,1.171-1.748,1.928-4.1,3.263-5.018a.782.782,0,0,1,.653.514c.527.611.678,1.673,1.924,1.874a10.118,10.118,0,0,0,0,5.633v.113h.046a26.952,26.952,0,0,1,1.481,8.506c-1.058.263-3.116.1-4.183.368a28.533,28.533,0,0,1-.979,3.714c1.15,1.472,2.092,1.43,3.84,5.357a10.51,10.51,0,0,1,.594,2.693c-2.146.983-1.209,2.2.2,3.346-1.134-1.694-1.134-1.694.87-2.346.326-2.731.046-3.555,1.012-4.182,1.577-1.025.837.987,2.217,1.091,3.313.259,5.216-4.993,5.81-6.691.933-3.145.887-11.425,1.431-18.4a16.794,16.794,0,0,1-1.092-5.144h0c-.351-3.73,1.071-4.772.23-7.109-1.309-3.9-4.338-6.319-5.777-9.995-1.046-2.84-1.3-6.879-4.685-7.72-2.167-.284,3.765-2.584-2.355-2.254-1.146-.088-2.652-2.848-6.007.339-.193,2.509,1.326,3.668,0,4.253-2.305,3.04-2.736-3.2-3-1.384-.51.652.285,2.208-.443,2.727-1.255-1.363.36-6.064-5.02-1.773-2.769.13.506-5.018,1.029-8.782.69-4.429,0-7.473.264-7.8,1.477-2.76.506-6.516.837-10.873.243-3.086,2.209-1.782,3.317-4.224,0,0,1.782-2.162,3.819-1.773-.607-1.079-.218-1.627.636-2.25v.117a26.381,26.381,0,0,0,3.9-2.8s-1.59-1.731-.941-2.718c.9-1.192,3.932-1.761,5.773-3.228,1.021.192-1.431,3.567.347,2.9.979-2.221,2.845-2.538,2.477-5.211,1.025-1.3,2.092-1.907,2.351-3.609.088-1.146-2.719,2.43-3.221,1.472-.883-1.907-.837-8.456-1.774-9.681-1.673-1.857.418-4.1,1.3-6.332,2.23.861.991-2.455,1.673-2.058.757.631,1.832,4.508,2.485,3.525,1.2-2.091,1.309.908,2.146.514,1.673-.677-1.757-4.048-.665-6.273a2.88,2.88,0,0,0,.272-1.932c-.54-2-3.2-3.241-3.192-3.346.071-.916,1.577-4.015,3.045-3.672-2.786,4.726,2.773,5.734,3.347,7.39,1.213,3.655-.594,4.663,1.389,10.221a38.259,38.259,0,0,1,1.673,6.34c1.2,5.265-2.318,4.65.715,7.068,1.728,1.4-.586,3.061,3.347,7.272a25.668,25.668,0,0,0,7.111,5.959c3.091,1.618,8.785,5.169,12.1,7.034A18.627,18.627,0,0,0,622.535,103.225Zm-28.362,57.427a.451.451,0,0,1-.15,0,.593.593,0,0,0,.15,0Z" transform="translate(-265.501 436.034)" fill="#65b8df" stroke="#fff" stroke-linejoin="round" stroke-width="0.5" fill-rule="evenodd"/>
      <path d="M577.48,119.44a.364.364,0,0,0-.372.314c-.025.343.247,1.284.7,1.322.23,0,.376-.418.389-.548a1.254,1.254,0,0,0-.176-.7l.025-.343Z" transform="translate(-318.752 369.744)" fill="#65b8df" stroke="#fff" stroke-linejoin="round" stroke-width="0.5" fill-rule="evenodd"/>
      <path d="M555.674,114.834c.343.029.368-.314.376-.418s-.058-.694-.176-.7.021-.23-.084-.355c-.1-.234-.653-.506-.987-.648l-.025.343C554.75,113.383,555.444,114.822,555.674,114.834Z" transform="translate(-305.764 373.659)" fill="#65b8df" stroke="#fff" stroke-linejoin="round" stroke-width="0.5" fill-rule="evenodd"/>
      <path d="M558.11,103.216c-.063.8.64.623,1.071,1,.213.247.063.694.159.933a2.874,2.874,0,0,0,2.548,1.255c.088.351.544.385.887.418.573.046.6-.3.636-.753a8.577,8.577,0,0,0-.046-.924l.029-.343c.916.071,1.221-.941,1.493-1.493.531-.878,1.97-.188,2.041-1.1.029-.343-.075-.468.054-.686l-.569-.046c-.23,0-.364.2-.7.176-.916-.071-1.979-1.188-1.929-1.874.038-.456.046-.569.063-.8l.573.046c.042.92.418,1.982,1.334,2.058a1.72,1.72,0,0,0,1.673-.677c.121-.1-.142-1.158-.121-1.388-.573-.046-.36-1.292-.933-1.338a9.431,9.431,0,0,0-1.841-.025c-.586.184-.878.966-1.79.895-.456-.038-.556-.276-.782-.293-.343-.025-.485.309-.506.535a1.844,1.844,0,0,0,.782,1.786l-.025.343c-.469.079-.665-.284-1.012-.309l-.343-.025c-.686-.054-1.334-.565-2.02-.619-.343-.025-.795,1.317-.837,1.673-.033.456.418.606.377,1.062C558.366,102.9,558.127,103,558.11,103.216Z" transform="translate(-307.636 382.439)" fill="#65b8df" stroke="#fff" stroke-linejoin="round" stroke-width="0.5" fill-rule="evenodd"/>
      <path d="M583.124,94.185c.916.071,1.054-.263,1.857-.2l.456.038c0-.23.623-.644.966-.615.8.063,1.744-1.7,1.794-2.392a1.882,1.882,0,0,1,.038-.456c-.23,0-.439-.263-.669-.28a4.4,4.4,0,0,0-1.991.535c-.251.326-.418.769-.644.866l-.343-.025c.025-.343-.31-.485-.536-.5-.69-.054-.795,1.317-1.05,1.644-.448-.151-.544-.385-.745-.749h-.23c0,.23-.038.456-.046.573A1.328,1.328,0,0,0,583.124,94.185Z" transform="translate(-321.585 386.71)" fill="#65b8df" stroke="#fff" stroke-linejoin="round" stroke-width="0.5" fill-rule="evenodd"/>
      <path d="M581.33,123.726l.218.13c.117,0,.514-.648.514-.648.151-.452,1.293-.36,1.527-.456.941-.272,1.987-.418,2.067-1.451.109-1.372-2.092-1.309-3.221-1.4-.23,0-1.012,1.188-1.038,1.531-.046.573.506.836.46,1.413S581.368,123.287,581.33,123.726Z" transform="translate(-321.209 369.476)" fill="#65b8df" stroke="#fff" stroke-linejoin="round" stroke-width="0.5" fill-rule="evenodd"/>
    </g>
    <g id="nw" transform="translate(-2.102 -282.534)">
      <path d="M293.786,142.923c-.31,1.008-.038.456-.109,1.368-.05.69-.966.615-1.021,1.3-.151,1.945,2.51,3.07,3.719,3.969l.682.054a21.4,21.4,0,0,1-.251-4.157c.322-4.115,2.071-4.437,4.041-6.127-.217-.13-.322-.255-.314-.368a4.7,4.7,0,0,0,1.293-.36c-.51-.836-1.063-1.117-1.213-2.162a2.82,2.82,0,0,1-1.447-.573,2.465,2.465,0,0,0-.774-.418c-.272.552-.418,1.117-.7,1.556-.443-.151-.648-.51-1.1-.548l-.8-.059-.046.569a3.59,3.59,0,0,0,.72,1.092c-.23,0-1.255,0-1.406.351-.376.418-.2,1.133-.891,1.079-.456-.038-.519-.732-.862-.757-.916-.071-1.46,1.037-1.531,1.949C291.678,141.953,293.221,142.764,293.786,142.923Z" transform="translate(-152.778 360.429)" stroke="#fff" stroke-linejoin="round" stroke-width="0.5" fill-rule="evenodd"/>
      <path d="M334.092,116.207c-.837.284-1.021,1.3-1.485,1.38-.351.088-.908-.184-1.134-.2-.916-.071-1.531.456-2.33.393-1.255-.1-1.74-1.284-3-1.384l-.046.573-2.627-.2c-.837.28-1.318.7-2.02.874-.238.1-.293.782-.636.757a3.573,3.573,0,0,1-.648-.51,1.825,1.825,0,0,1-1.083.6c-.08-.464-.318-.368-.774-.418l-.067.815a.891.891,0,0,1,.418.493l-1.029-.079a6.279,6.279,0,0,0,.473,1.3.837.837,0,0,1-.765-.519l-.569-.046c-.046.573.063.694-.079,1.029a.908.908,0,0,1-.573-.042c-.686-.054-.418.887-.8,1.43-.314-.372-.628-.74-.975-.765-.8-.067-2.213.418-2.259.97,0,.23,1.293,1.137,1.5,1.384l-.8-.063c-.23,0-.791-.176-.837.393s.544.389.87.644c.439.263.289.711.368,1.179s1.2.782,1.774.836c.686.054.418-1,.469-1.572.448.151.661.418,1,.418.159-.565-.264-1.058-.121-1.388.2.36.393.836.736.861.456.033.494-.418.51-.652.046-.569-.3-.6.071-.912.1.234.418.606.527.615.573.042,1.255-1.514,1.627-1.715.209.247.31.485.653.51s.272-.552.615-.523a5.113,5.113,0,0,0,1.732-.1c.36-.2.176-.79.644-.87,1.774-.665,2.69-.6,5.02-.874l3.765.293c1.673-.56,3.865-.836,4.049-3.249C336.389,116.273,334.113,115.981,334.092,116.207Z" transform="translate(-164.513 371.664)" stroke="#fff" stroke-linejoin="round" stroke-width="0.5" fill-rule="evenodd"/>
      <path d="M263.569,164.81c.686.054,1.054-.263,1.51-.226l1.255.1c.113,0,.573.046.607-.418.029-.343-.28-.836-.506-.836s-.686-1.547-.782-1.786a2.479,2.479,0,0,0-2.581,2.091C263.03,164.421,263,164.764,263.569,164.81Z" transform="translate(-136.073 345.192)" stroke="#fff" stroke-linejoin="round" stroke-width="0.5" fill-rule="evenodd"/>
      <path d="M52.4,153.035c-2.288-.18-1.97-1.3-3.167-.707-.6.3-1.255.13-.908,1.309.64,2.12,2.117,3.843,2.907,5.516l.247-.213c.615-.527,2.092-.418,2.217-1.894a7.158,7.158,0,0,0-.607-2.576C52.7,153.633,52.4,153.035,52.4,153.035Z" transform="translate(-11.116 350.71)" stroke="#fff" stroke-linejoin="round" stroke-width="0.5" fill-rule="evenodd"/>
      <path d="M305.255,175.56c-.151.452-1.2.711-1.255,1.284a15.041,15.041,0,0,0,1.636,2.656,1.129,1.129,0,0,0,1.117-1.062c0-.23-.368-1.175-.711-1.2-.23,0,.063-.8.063-.8C306.113,176.087,305.443,175.807,305.255,175.56Z" transform="translate(-159.892 337.093)" stroke="#fff" stroke-linejoin="round" stroke-width="0.5" fill-rule="evenodd"/>
      <path d="M291.361,154.534c.113,0,.456.033.473-.2.046-.569.046-.569.088-1.142s-.033-1.037-.6-1.083c-.456-.033-.456-.033-.494.418-.046.573.389.949.351,1.409C291.151,154.283,290.9,154.5,291.361,154.534Z" transform="translate(-152.227 350.743)" stroke="#fff" stroke-linejoin="round" stroke-width="0.5" fill-rule="evenodd"/>
      <path d="M182.822,137.944a2.656,2.656,0,0,0-1.51.23c-.711.289.113,1.5-.284,2.162.418,3.709-1.786.782-2.426,1.673.33,1.635-1.949,2.835-1.531.452.088-1.142,2.129-.753,1.23-2.547-3.5.648-4.062.489-6.1-1.4-2.665,1.748-1.987.418-2.652.142-1.786-.715-2.656-1.359-.456-1.531-.134-1.255,4.581-1.255.95-1.882l-1.828-.142c-.548,1.108-1.435,2.187-1.945-.151a32.28,32.28,0,0,1-3.56-.05c-3.313-.255-4-1.8-7.141,1.631-.632.753-1.318-.795-2.092-1.426a6.319,6.319,0,0,0-.2-3.346c.933-.159.573-1.451,3.56.046,1.673.707,1.472-2.643,1.1-3.818-1.414-1.033-2.476-3.642-2.548-2.731-.264,1.936.745,2.246-2.845,4.031-3.476,1.8,1.184,2.509-1.824,4.228,0,.113-.326-.255-1.18.368a17.7,17.7,0,0,0-1.255,1.623c.485-1.8-3.129-1.163.272-2.045-.376-1.066-1.075-2.384-1.77-2.325-2.4,1.309-4.125-.2-5.384-.305-3.083-.238-1.673,3.764-3,4.6a7.515,7.515,0,0,1-2.163-6.143c.159-.565-2.928-2.413-3.347,1.673,2.276,1.79.477,2.685-.326,2.735-1.213-.2-1.74-.795-1.82-1.568a.838.838,0,0,1,.1-.059,19.6,19.6,0,0,1,.284-3.655c-.121-1.393.494-1.92,1.945-4.333,3.3-1.008,2.74-2.66,2.928-6.327h0c.021-.3.046-.594.059-.8,1.209-5.194.573,1.539,1.782,3.7.569,4.529,2.681,8.364,6.455,8.665s5.6-2.551,5.325-6.365c-.067-2.091-1.573-3.458-.837-8.364-1.36-1.715-.544-1.882-1.673-3.689-6.233-1.179,1.175-.372-1.23-1.936.029-4.826,1.088.774,1.74-.209-.59-1.309-.117-2.886-1.845-2.9-.958.5-2.539-1.351-3.434-1.648-3.844-.874-5.329.5-5.472,3.827,0,3.1-2.661,1.631-4.33,2.421a4.746,4.746,0,0,0-1.171,1.748c-1.058,1.756-2.008,3.638-4.037,3.132-.448-.146-.356,1.585-1.841,1.468-.054,2.179-.644,2.363-1.56,2.292-.209,2.743-1,2.568-2.719,2.434.13,4.261-.987,5.324-1.447,5.29a53.146,53.146,0,0,1-8.174.167h-.117a11.185,11.185,0,0,1-3.506-.732,10.635,10.635,0,0,0-1.033,2.906c-.456,1.455,1.673,1.97.632,3.726-.916,1.422-.686-1.547-1.088-2.271-1-.535-1.565-.577-1.891-.836-1.167-1.255-1.506.113-1.828-.138l-.084,1.025c-.711-.054-1.109-.13-1.33.1a.576.576,0,0,1-.172,0l-1.941-.151c-.661,1.1-1.473,1.15-2.092,1.907-.381.418-.418,1-.916,1.422-.36.2-1.255-.213-1.732.1-.607.418.025,1.15-.142,1.828a12.242,12.242,0,0,1-1.418.464c-.837.623-.966,2.112-1.485,2.873-.268.439-.837.393-.891,1.079-.092,1.146.929,1.338.866,2.137-.046.573-.837.627-.9,1.2,0,.23,1.673.933,1.732,1.4.172.707-.146,1.828.54,1.882.23.021.372-.314.6-.3s.3.6.644.627c.569.042,2.267-1.091,2.313-1.673.025-.343.038-.456.063-.8a14.175,14.175,0,0,1,.477-1.673c.226,0,.464-.079.686.054.033-.071.054-.1.079-.092.59.209.418,1.054.866,1.2,1.786.715,2.276.293,3.719.979.418.263.51.836.966.882,1.255.1,2.259-.974,3.062-.912,1.372.1.782,1.786,1.464,1.836.23.021.6-.3.837-.28.079.468.28.836.623.836.23.021.368-.314.6-.3.573.046.958.991,1.87,1.062l.1.238c-.029.343.067.581.3.6.573.046.837-.506,1.3-.473.8.063.36,1.292.418,1.874-.054.686.418.493.991.535.916.071.933,1.338,1.845,1.409.113,0,.264-.439.494-.418,1.945.151.577,4.416,2.631,4.575.916.071,1.083-.606,1.882-.544.573.046.987.652,1.556.7.456.033.51-.652.874-.836.418.493.155.933.464,1.413,1.025,1.577,2.255,2.016,3.414,3.371a3.651,3.651,0,0,0,3.526,2c2.33-.393,3.949-3.484,5.773-4.721.176.7,1.389-.125,1.673.477.485.682.054,1.493.251,1.991-.812.815-1.025,2.421-1.573,3.2-.264.418-.837.393-.891,1.079-.033.456.527.615.749.749l-.707,1.33c.548.385.222,1.627,1.021,1.673.686.054,1.021-1.3,2.167-1.213.456.038.778.289,1.351.335s.7-.176,1.167-.255c-.033.46.038,1.041.494,1.075.569.046.837-.623,1.539-.569l.343.025c.226,0,.694-.059.728-.519.063-.8-.146-1.046-.092-1.731,0-.226.569.046.8.063l.569.046c.916.071,2.322-.28,2.217,1.091,0,.23-.063.8.167.836l.456.033c.8.063.837,1.326,1.958,1.418l3.087.238c.686.054.837-.393,1.406-.351,2.288.18,2.895,2.756,6.153,2.2l.678-1.326c.054-.686.9-1.2,1.171-1.748.837-1.773.837-3.383,2.092-4.663.376-.418,1.836-1.468,1.874-1.924.464-1.572,1.083-3.592,2.8-3.463l.573.046c0,.113.067.581.184.59,1.711.134,2.418-1.535,4.183-1.861,2.121-.64,3.347-1.807,5.823-2.417,1.406-.351,4.811-1.255,4.97-3.3.054-.686-.719-1.087-.682-1.547.071-.912.883-.966,1.163-1.631l.13-.222h0a1.425,1.425,0,0,0,.172-.56c.079-1.029-.8-1.56-.74-2.359s1-1.071,1.4-1.731c-.1-.234-.289-.711-.389-.949C186.762,140.554,183.947,139.759,182.822,137.944Z" transform="translate(-35.727 378.753)" stroke="#fff" stroke-linejoin="round" stroke-width="0.5" fill-rule="evenodd"/>
    </g>
    <g id="sibiria" transform="translate(-2.102 -282.534)">
      <path d="M433.734,92.324c-.46-.038-.36.2-.59.184-.142.335-.038.456-.054.682a.929.929,0,0,0,.966.882.418.418,0,0,0,.418.493c.226,0,.887-1.079.887-1.079.054-.686-1.176-1.125-1.632-1.163Z" transform="translate(-234.969 385.522)" fill="#65b8df" stroke="#fff" stroke-linejoin="round" stroke-width="0.5" fill-rule="evenodd"/>
      <path d="M438.716,78.553c-.456-.038-.552-1.769-1.125-1.815-.343-.025-.368.318-.381.418,0,0-.728.519-.837.623-.343-.025-1.305.477-1.339.928s.527.619.51.836c-.046.569-.565,1.334-1.138,1.288a3.045,3.045,0,0,1-.038.456c-.234.1-.473.2-.481.309-.033.456.653.51.87.64.418.381.36,1.3,1.046,1.347.912.071,1.092-.719,1.795-.895.464-.075,1.732-.092,1.786-.778.038-.456-.757-.636-.711-1.2.033-.46.837-.51.9-1.2a.9.9,0,0,0-.837-.983Z" transform="translate(-235.445 394.589)" fill="#65b8df" stroke="#fff" stroke-linejoin="round" stroke-width="0.5" fill-rule="evenodd"/>
      <path d="M441.246,91.61c-.113,0-2.225.514-2.489.954-.159.565-.059.8-.318,1.125-.138.335-.966.615-.991.958-.046.569,1.1.661,1.042,1.347s.247,1.28.837,1.326c1.142.088,1.615,1.393,2.874,1.489.8.063,1.4-.234,1.456-1.037.059-.686-.506-.836-.46-1.414a3,3,0,0,1,.272-.556c.109-1.372.126-1.6.18-2.283s-.238-1.4-.811-1.443c-.339-.025-.251.326-.272.556a3.191,3.191,0,0,1-1.021,1.3,1.208,1.208,0,0,1-.184-.585c.038-.46.519-.765.556-1.221.046-.573-.192-.477-.653-.51Z" transform="translate(-237.515 385.935)" fill="#65b8df" stroke="#fff" stroke-linejoin="round" stroke-width="0.5" fill-rule="evenodd"/>
      <path d="M455.2,101.336l.025-.343a.494.494,0,0,0-.418-.493,5.067,5.067,0,0,0-1,1.075h0l-.088,1.142h0a14.908,14.908,0,0,1-.908,2.8h0l-.079,1.029h0a2.851,2.851,0,0,0-.565,1.338.418.418,0,0,0,.418.489c.456.038.719-.418.966-.611a4.95,4.95,0,0,1,2.263-.974,2.57,2.57,0,0,0,2.117-2.133c.063-.8-1.18-2.509-1.753-2.551-.8-.063-1.083.6-1.138,1.288h0l-.339-.025.05-.686h0Z" transform="translate(-246.071 380.763)" fill="#65b8df" stroke="#fff" stroke-linejoin="round" stroke-width="0.5" fill-rule="evenodd"/>
      <path d="M420.034,232.386a8.382,8.382,0,0,1,3.995-5.55,2.811,2.811,0,0,0-.837-1.213c-.544-.389-.519-.732-1.046-1.351-.64-.623-.611-.966.092-1.138s.389-.548-.151-1.05-.983-.648-.728-.974c.259-.439.08-1.029-.418-1.991-.377-1.062-.7-1.317-1.192-.895-.5.539-.816.167-1.213-.669-.28-.836-.728-.974-1.724,0-1.109.945-2.092.067-1.313-.795.745-.744.142-.448-.506-.958s-.226-.021-1.217-.556c-.874-.644-.1-1.618-.1-1.618-2.7-.523-2.719-3.258-3.928-5.048l-.063-.092c.046-.033.046-.159.046-.159l-.339-.209c-.531-.615-1.962-1.418-2.246-2.242-.259-1.054-.092-1.731-.837-2.367l-1.138-.088c-.171.678-.314,1.012-1.113.949-2.171-.171-1.255-3.2-3.765-3.4-3.656-.284-2.769,1.623-3.811,4.646-.59,1.673-2.138,2.363-2.51,3.944-1.029-.079-1.159-1.355-1.732-1.4-1.941-.151-2.886,3.111-5.283,2.927-1.372-.109-1.293-1.138-1.23-1.936.171-2.17.238-3.082.418-5.37a16.255,16.255,0,0,1,.766-2.467c-1.652-.933-2.723-1.936-2.6-3.538,0-.23.025-.343.1-1.255.08-1.029-1.313-.908-1.61-1.506-.489-1.075-.088-1.848-.581-2.806-.364-1.288-1.13-1.811-2.711-2.166.159-.56.628-.64.678-1.326.046-.569.142-.335-.18-.59l-.786-.293a1.088,1.088,0,0,1-.146.418l.034-.418h-.234c-.569-.042-1.042.146-1.594-.125-.669-.28-.878-.523-1.334-.56a6.3,6.3,0,0,1-2.058-.159c.151-1.945.1-1.372.2-2.63.084-1.029,1.15-1.405,1.192-1.978.113-1.485-1.765-2.434-1.878-3.939-.167-.836.448-1.342.272-2.045-.067-.581-1.088-.774-1.765-.941.318-1.129,1.795-.9,1.882-2.041a20.01,20.01,0,0,0-2.51-10.656c1.063-.376,2.112-2.02,2.815-2.2.837-.276,1.8.489,1.891-.657.046-.569-.5-.958-.456-1.531l1.92-3.99c.494-.418,2-.531,2.092-1.673.071-.916-.95-1.108-1.255-1.593-.5-.958.042-2.066-.577-2.927-.837-1.213-1.954-1.531-2.531-2.957-.6-1.2.029-1.836-1.309-2.4.289-.782.661-1.1.7-1.556a6.011,6.011,0,0,0,.335-1.351l-.343-.029a6.2,6.2,0,0,1-.765-.519c-3.51.761.753,2.129-.418,2.722-1.339,2.426-4.225,2.547-5.359,3.839.1-2.752,7.567-8.611,7.994-14.093.163-2.058-2.97-6.093-4.919-6.244a5.813,5.813,0,0,0-2.773.243c-.393,2.041-1.393,1.614-2.092,1.564s3.723-3.5-2.644-2.969c-.648-.51,2.681-.477.987-2.334-1.431-.8-2.364-.644-2.51-.084-.74.631-1.456,2.417-2.326,3.27-.879.962,1.414,2.509-1.067,3.367,0,0-3.234-1.288-.372,1.807-1.209-.669-1.343-.447-1.673-.477-.113,0-1.514,1.723-2.188,1.556s1.293-1.853.033-1.953c-1.581,1.142-2.481.836-3.409,1-2.288-.176.146,1.045-.7,1.556-.607.418-2.786.355-4,1.184a15.058,15.058,0,0,0-4.564,4.011c-1.255,1.284,2.543,7.21-.778,4.082a22.234,22.234,0,0,1-6.43-.159c-2.744-.213-3.288.895-2.092,3.517.393.836-1.585,2.635.628,3.722.837-.506.389,2.446,1.351,1.832.925,1.451,1.339,2.058-.4,3.647,0,0,1.037,2.957.627,3.73-1.673,2.509-1.615,1.6-1.908.887,2.142-3.86.632-5.127-.837-.874a16.809,16.809,0,0,1,1.5-4.479c2.723-3.927-.837-1.1-1.385-2.869-.661-1.89-1.343-1.945-2.707-3.659,0,.113-.247.209-.586.184-.259.326-.151.447-.18.79-.1,1.255,2,.836,2.012,2.225.071,2.091-1.673,1.02-1.778,2.162-.08,1.029,1.472,1.723,1.334,3.55-.234,2.973-3.347,1.468-3.56,4.324-.088,1.142,1.815,3.245,2.962,3.346.686.054.59-.184.924-.042.418.719,1.414,1.029,1.305,2.4-.05.686-.079,1.029-.678,1.326l.071.581.088.351h-.117a2.388,2.388,0,0,1-.924,1.535c-.351.092-1.029-.079-1.071.493a38.652,38.652,0,0,0,.5,3.948c.519.728.991.535.9,1.673s-.126,1.6-.243,3.082c-.1,1.372,1,1.915,1.87,2.564l-.054,2.175a1.723,1.723,0,0,0-.527.878c-.063.8,1.949,1.535,2.753,1.6-.054.682.117,1.388.046,2.3-.159,2.058-2.179,1.439-2.33,3.383-.054.686.711,1.2.628,2.233s-1.351,1.158-1.652,2.058c-.159.56-.088,1.142-.452,1.342s-.456-.033-.807.05c-.151,1.945.753,3.626,2.581,3.764.146,2.538-3.79,1.43-3.932,3.254-.8-.059-1.063-1.117-1.866-1.179-1.485-.117-2.092,1.564-3.1,1.485-1.6-.125-1.719-1.518-3.552-1.673a4.064,4.064,0,0,1-2.794-1.025l-1.941-.146a6.479,6.479,0,0,0-1.9-.728c-1.828-.142-2.447,3.375-3.347,4.454-.653.987-1.874.418-2.535,1.531-.51.648-.573,1.447-1.217,2.317l-.791-.176.088.259a.276.276,0,0,0-.109-.033l-.565.644c-.393.657-.632.753-1.673,1.016-.933.159-1.443-.686-2.472-.765-.456-.038-.837.28-1.284.243-.686-.05-3.786-1.56-3.765-2.016.021-.226.485-.305.523-.765.021-.343-.054-.807-.4-.836-.912-.071-2.092,1.673-2.489,2.451.569,1.539-.686,1.439-.749,2.237,0,.23.05.811.506.836.23,0,.151-.447.611-.418.8.063.711,1.2,1.1,2.154.586,1.309-2.016.761-2.782,1.74-.255.322-.117,1.485-.485,1.8-.36.2-1.021-.2-1.092.719a4.145,4.145,0,0,1-.757,2.354,15.675,15.675,0,0,1,.795,3.053,2,2,0,0,1-1.18,1.861l-.05.686c.569.046.887.418,1.23.439.456.038.72-.418,1.176-.364.916.067.439,1.756,1.125,1.811.343.025.469-.079.724-.418a7.463,7.463,0,0,0,.837,1.1c.23.021,1.037-.033,1.008.309-.059.8-1.167.255-1.255,1.167-.033.456.418.493.535.5l.456.038c.573.042.757.632,1.213.665.8.067,1.2-.594,2.008-.644a7.76,7.76,0,0,0,1.774-.585c1.334-.059,2.092-.611,3.367-.51l.8.063c-.063.8-.535.991-1.221.941l-.067.8c.837,1.33,1.9,2.216,2.468,3.764l3.154,12.659c0,.23.184.594.418.611,1.142.088,1.063-1.874,2.092-1.794.343.025,1.221.556,1.2.9-.084,1.029.623.836.519,2.225a8.652,8.652,0,0,1,1.711.13c1.489.117,2.455-.5,3.6-.418,1.255.1,2.071,1.426,2.347,2.367l.314.025h0a.579.579,0,0,0-.1.1l.121-.1c0,.113-.251.326-.264.439-.1,1.255,1.037,1.46,1.811,1.865.544.389.146,1.045.1,1.618.033,1.037,1.4,1.255,2.313,1.33a.719.719,0,0,0,.736.861c1.029.079,1.125-1.179,2.276-1.2-.042.573-.067.916-.1,1.372-.054.686.615.97.795,1.556,0,0,1.807.489,2.681-.481.49-1.8,2.589-.719,3.665-1.209a15.92,15.92,0,0,0,1.464-.874,2.059,2.059,0,0,1,.305-.084c2.485-1.51,4.313-3.057,6.275-3.471,2.7-.711,7.647.711,7.329,1.836-.389,2.037,2.589,2.154,4.995,2.342,4.112.322,6.53.28,6.768-2.806.054-.686-1.615-1.393-1.506-2.764.167-2.17,2.121-3.626,2.928-4.943,2.8.908,6.413,1.765,9.094,2.777,1.9.723.8,4.546,4,4.8,3.886.3,3.987-2.451,8.555-2.091,1.715.134,2.865,1.6,3.807,1.334a1.209,1.209,0,0,1,.581-.071l.121-.109v.088a.323.323,0,0,0,0,.054c.059.272.632,2.434,4.388,2.618,7.22.33,12.315-6.055,13.428-8.5.669-1.213,2.928.573,4.455.347.812-.05,1.7-1.133,2.384-1.079,1.255.1,1.673.707,3.255,1.058,3.041.811,3.183-2.509,5.112-3.626.958-.5-1.037-1.46-.862-3.764a17.575,17.575,0,0,1,1.142-5.775C424.409,230.546,420.23,234.013,420.034,232.386Z" transform="translate(-151.266 368.507)" fill="#65b8df" stroke="#fff" stroke-linejoin="round" stroke-width="0.5" fill-rule="evenodd"/>
    </g>
    <g id="south">
      <path d="M61.311,351.585v-.23c-.213-.247-.033-1.037-.351-1.405-.632-.74-1.862-1.183-1.8-1.982.025-.343.033-.456.063-.8.142-1.832-2.179-3.044-2.008-5.215.033-.46.385-.544.418-1.229.088-1.142-1.255-1.48-1.644-2.543-.084-.351.046-.573-.276-.836-.891-.418-1.5,0-1.514-1.255-.464.079-.481.309-.941.272a1.1,1.1,0,0,1-.837-1.1c-.305-.485-.519-.728-.975-.765-.686-.05-.4.661-1.083.606-.456-.033-.527-.619-.87-.644a6.987,6.987,0,0,0-1.058,1.761c-.033.456.556.272.519.728-.054.686-.088,1.142-.167,2.17-.933.159-1.3.473-1.364,1.275v.226a1.37,1.37,0,0,1-1.569.912c-1.142-.088-.36-1.292-1.615-1.388-.8-.063-2.225.514-2.3,1.43-.121,1.552,1.845,4.136,2.966,4.885a.155.155,0,0,0,0,.059c0,.23.527.615.527.615.305.485.69,2.927,1.255,3.2-.046.569.623.836.586,1.309,0,.226-.368.314-.389.544-.071.916,1.987,1.075,2.786,1.137h0c-.084.155,0,.113-.042.464-.054.682.983.648,1.493,1.493.3.464.142,1.317.494,1.919a1.832,1.832,0,0,0-1.226,1.585c-.1,1.255,1.063,1.121,1.113,1.928a8.24,8.24,0,0,0,.72,2.584l-.2,2.509c.079.468.59,1.313,1.159,1.355.686.054.837-.51,1.418-.464l1.485.117c.456.033.791.176,1.159-.142a9.122,9.122,0,0,0,0-2.986c.611-1.911-.975-3.764,1.113-5.437.284-.669,2.782-1.74,1.974-3.178a2.454,2.454,0,0,1,0-3.1C60.5,351.635,60.847,351.66,61.311,351.585Z" transform="translate(-9.558 -37.89)" fill="#65b8df" stroke="#fff" stroke-linejoin="round" stroke-width="0.5" fill-rule="evenodd"/>
      <path d="M73.674,308.846c-.088-.351-1.28-2.743-1.28-2.743l-.686-.054c-.912-.071-.326-1.748-.782-1.782l-.8-.063a.757.757,0,0,1-.745-.749c.054-.686.975-.732,1.029-1.414.142-1.832-1.916-1.991-2.51-3.187-.389-.949-2.154-.4-2.033-2,0-.226-.088-.351-.071-.577-.786-.18-1.372-1.489-1.945-1.535l-2.4-.184c-.326,1.255-2.008,2.141-2.092,3.17a1.405,1.405,0,0,0-.556-.272c-.569-.046-.941.272-1.623.217-1.255-.1-1.284-1.255-2.426-1.338-.686-.054-.264.439-.418,1-.506.648-1.414.46-2.33.389-.042.573.293.715.255,1.171-.924.042-1-.418-1.6-.126-.038.46-.038.46-.054.686-.063.8-.971,2.112-2.113,2.02-.912-.071-1.23-1.932-2.372-2.02-.113,0-.255.322-.481.305-.573-.046-.749-.749-1.322-.795-.686-.05-1.556.8-1.937,1.229a6.853,6.853,0,0,0,2.209,1.2c1.071,1.008.464,1.418-1.565.916-.117,0-.335-.142-.452-.151a4.987,4.987,0,0,1-1.983-1.075c-1.142-1.585-.837.51-1.426.577.736.862,1.368,1.6.6,2.576,0,0-2.51-1.915-3.154-.836-.924,1.535-1.585,1.138-2.008.644l-1.217-2.049-1.079.606c.531.5.418,1.874.356,2.785-.1,1.255,1.36,3.212.506,3.835-.284.665.305.485.682,1.547.456,1.531.025,2.643.226,4.5a9.686,9.686,0,0,0,.343,1.522c.243-.209.473-.192.8.059.1.125.7,1.322,1.15,1.472.071-.916,1.493-1.493,2.3-1.43,1.255.1.473,1.3,1.615,1.388a1.366,1.366,0,0,0,1.569-.912v-.226c.063-.8.418-1.117,1.364-1.275.079-1.029.113-1.485.167-2.17.038-.456-.552-.272-.519-.728a6.988,6.988,0,0,1,1.058-1.761c.343.025.418.611.87.644a.418.418,0,0,0,.494-.418l.247-.209c0-.117.113,0,.343.025.456.038.669.28.975.765a1.1,1.1,0,0,0,.837,1.1c.46.038.477-.192.941-.272,0,1.255.623.836,1.514,1.255.322.255.192.477.276.836.376,1.062,1.732,1.4,1.644,2.543-.054.686-.418.769-.418,1.229-.172,2.17,2.15,3.383,2.008,5.215-.029.343-.038.456-.063.8-.063.8,1.167,1.255,1.8,1.982.318.368.138,1.158.351,1.405v.23a3.766,3.766,0,0,0,2.619-1.179,2.138,2.138,0,0,1,1.565-.912c.8.063,1.452.573,2.255.636a13.224,13.224,0,0,1,3.664.171c-.318-.368-.2-.36-.519-.728l.172-2.175c.782.293.745.749,1.414,1.033a6.778,6.778,0,0,0,.418-2.727c.075-1.255.418-2.509-.418-3.367-.531-.5-1.816-.259-1.728-1.4.071-.912.878-.966,1.284-1.74l-.314-.368c-.213-.247-.766-.519-.715-1.2s.54-1,1.025-1.3c.95-.385,2.213-.418,2.577-2.091.326-1.255,2.276-1.2,3.347-1.468.464-.075.51-.648,1.079-.606l.573.046C73.665,308.963,73.787,308.854,73.674,308.846Z" transform="translate(-3.958 -14.676)" fill="#65b8df" stroke="#fff" stroke-miterlimit="10" stroke-width="0.5"/>
      <path d="M18.053,296.5c.151.243.51.134.51.059a11.351,11.351,0,0,0-.9-1.317c-.293-.234-.632.059-.837-.176a.581.581,0,0,1-.117-.447c0-.025.2-.155.192-.209s-.577.1-.812.054a.837.837,0,0,1-.556-.447,1.505,1.505,0,0,1-.042-1.2,21.912,21.912,0,0,1,1.389-3.262c.13-.18.155-.347-.117-.13a6,6,0,0,0-.941.987c0,.117.151.075.184.163.063.155-.063.326-.13.46a5.686,5.686,0,0,0-.615,2.12c0,.188.079.594-.075.74-.071.063-.418.038-.418-.067s.138,0,.134-.238a5.06,5.06,0,0,0-.289-.611,1.35,1.35,0,0,1,.1-.619c.142-.151.3.029.469-.109a1.8,1.8,0,0,0,.138-1.275c0-.159.314-.042.3-.13s-.577-.527-.569-.527c.142-.033.72.3.452-.155-.033-.054.121-.125.18-.176s-.9-.142-.644-.364.54.238.753-.075c.042-.067.121-.314-.05-.288-.079,0-.063.188-.151.209a.582.582,0,0,1-.381-.121c-.059-.071.184-.322.2-.389a.89.89,0,0,0-.033-.673c-.05-.1-.142-.171-.188-.28a3.036,3.036,0,0,1-.088-.418,5.486,5.486,0,0,1-.23-.539c-.05-.259.079-.527-.134-.736-.088-.084-.368-.222-.489-.176s-.163.238-.23.335c-.142.192-.079-.088-.13.1,0,.059.1.1.029.184s-.418-.038-.443.1.339.192.347.381-.243.418-.4.368.243-.372.176-.372-.1.05-.109.038.033-.079,0-.1-.3.318-.418.192c-.038-.046.218-.188.188-.293-.063-.209-.305,0-.418-.071s-.071-.184-.13-.251-.084.067-.117.054-.029-.138-.067-.155q-.308-.079-.607-.188a3.1,3.1,0,0,0-.418-.222c-.347-.142-.786-.443-1.18-.372,0,0,.121.188.038.213a.418.418,0,0,1-.318-.1c-.088-.075,0-.146-.109-.251a1.022,1.022,0,0,0-.456-.155c-.125-.029-.761-.138-.673.117s-.172.029-.192.125.222.372.272.418c.218.18.5.243.623.443a1.087,1.087,0,0,0,.515.477c.209.063.615.071.573.184s-.945-.075-1,.025.088.067.079.088a1.439,1.439,0,0,0-.142.519,1.322,1.322,0,0,0,.075.556c.075.084.368,0,.506.046a3.2,3.2,0,0,1,.494.318.5.5,0,0,1-.192.243c-.138.05-.381-.05-.33.155.025.1.318.15.155.268s-.067.255-.159.309-.13-.109-.213-.1-.109.063-.192.159a1.64,1.64,0,0,1-.368.376c-.163.092-.113,0-.335,0s-.255.184-.443.314-.418.184-.418.247.163.305.046.3-.121-.213-.188-.28-.251-.222-.343-.213-.075.376-.05.506.226.418.213.585-.2.364-.071.544c.071.1.226.042.33.159s.167.347.326.477a1.133,1.133,0,0,0,.636.117.519.519,0,0,1,.322.13.837.837,0,0,0,.477.113,3.566,3.566,0,0,1,.874-.1,3.377,3.377,0,0,1,.837.284,2.824,2.824,0,0,1,.519.418c.2.159.3.113.376.33s-.046.36.264.33.176-.075.293-.075.172.075.305.054.042-.209.276-.054c.088.075.046.335.172.347a.7.7,0,0,0,.356-.079c.1-.042-.167-.2,0-.289s.418.042.527.1a.949.949,0,0,1,.527.933c0,.117-.134.309-.088.418s.192.121.284.18.046.113.117.146.251.1.339.134.247-.18.28-.134-.138.355-.109.418c.059.167.326.272.485.381s.5.314.5-.021c0-.088-.218-.477-.1-.473s.079.184.138.209.159-.063.272-.084.213.029.314,0C17.785,296.591,17.907,296.265,18.053,296.5Z" transform="translate(10.437 -9.413)" fill="#65b8df" stroke="#fff" stroke-miterlimit="10" stroke-width="0.5"/>
    </g>
    <path id="volga" d="M168.962,244.358c-.569-.042-.72.418-1.406.351-1.255-.1-2.05-.272-3.192-.364v.117c-1.142-.092-1.042-1.347-1.845-1.409l-.456-.033c-.23-.021-.184-.59-.167-.836.1-1.372-1.3-1.02-2.217-1.091l-.569-.046c-.23,0-.786-.289-.8-.063-.054.686.155.933.092,1.731-.033.46-.5.535-.728.519h.226l-.569-.042c-.686-.054-.971.615-1.539.569-.456-.033-.527-.615-.494-1.075-.464.079-.594.3-1.167.255s-.9-.3-1.351-.335c-1.146-.092-1.481,1.255-2.167,1.213-.8-.063-.473-1.3-1.021-1.673l.682-1.326c-.222-.134-.782-.293-.749-.749.054-.686.627-.644.891-1.079.519-.765.757-2.359,1.631-3.212-.31-.481.209-1.255-.31-1.974-.3-.6-1.51.226-1.673-.477a16.349,16.349,0,0,0-2.861,2.764c-.389,2.041-1.255,2.89-1.422,4.947-.109,1.372-2.9.347-3.593.418-.468.079-.514.648-.874.836-.234.1-.6.3-.607.418a4.82,4.82,0,0,1-1.79-.6c-.443-.263,0-1.493-.912-1.564-.686-.054-1.121,1.058-2.146.983a10.5,10.5,0,0,1-1.928-.381l-1.255-.1c-.084,1.025-.573,1.447-1.489,1.376-.456-.038-.51-.836-.966-.878s-.757.857-1.443.8c-.573,2.927-5.7.836-5.894,3.346-.063.8.272.941.837,1.1l-.033.456c-.134.222-.368.318-.389.544v.117c-.456,1.455-2.472,2.221-3.652,2.589a1.342,1.342,0,0,0-1.012,1.183c-.1,1.372-.159,2.058-.284,3.659-.088,1.142-1.364,1.255-1.749,1.815-.46-.033-.707.176-1.171.255l-2.288,1.317c-.033.456-.071.912-.071.912-.033.456-.418.891-.469,1.572-.121,1.6,1.644,1.05,2.033,2,.594,1.2,2.652,1.355,2.51,3.187-.054.682-.975.728-1.029,1.413a.757.757,0,0,0,.745.749l.8.063c.456.033-.13,1.71.782,1.782l.686.054s1.192,2.392,1.28,2.743c.113,0,0,.117.335.142-.418.657-.1,1.255-.251,3.2a3.321,3.321,0,0,0,1.222.556c1.715.13,1.008-2.568,3.062-2.409.916.075,1.418-.464,2.217-.418.343.025.661.4,1.117.418,1.142.092,1.757-.418,3.016-.339.113,0,.464-.075.581-.067l-.247.209c1.125.318.657,1.89,2.142,2.007.573.042.933-.159,1.372.1.418.381,0,1.255.1,1.731.176.7,2.029.5,1.941,1.644-.071.916.314,3.346,1.192,3.889.9.188.866.64.941,1.225a1.845,1.845,0,0,0,1.7,1.74c.916.071,1.652-.56,2.681-.481,1.6.125,1.142,1.585,2.133,2.12l1.945.151c1.175,1.129.477,4.182,2.648,4.345.46.038.724-.418,1.3-.36,1.029.079.9,1.794,2.037,1.882,1.941.155,2.794-.468,3.347-1.807.1-1.255-.958-.991-1.255-1.589-.1-.238.159-.565-.054-.811-.088-.351-1-.418-.975-.765,0-.226.381-.418.4-.657.054-.686-.644-.627-.6-1.2l.18-.795a9.172,9.172,0,0,0,1.109-.945c.063-.8-1.276-1.363-1.615-1.388l-.8-.063c-.343-.029-.581.067-.552-.276l-.079-.464c.079-1.029.9-1.309,1.539-2.066,1.012-1.184.356-1.581,1.255-2.664a7.146,7.146,0,0,1,2.28-1.2c.343.029.544.389.887.418s1.82-2.731,1.849-3.074l-.573-.046a4.185,4.185,0,0,1-2.092.3c-.8-.063-.991-.535-1.673-.59-1.372-.109-1.757-1.058-1.615-2.881.079-1.033.573-1.455,1.6-1.372.46.033,1.146.084,1.1.661s-.506.535-.778,1.087c.439.263.569.046,1.029.08.1.238.155.933.728.979.456.033.6-.3.757-.861.569.042,2.041.389,2.539-.146a1.844,1.844,0,0,1-.243-1.284c.079-1.029.669-1.213.749-2.242.075-.063.1-.088.142-.1-.418,0-.636.289-.837.272-1.029-.079-3.192-1.857-3.116-2.773.059-.8.987-2.338,1.8-2.509.464-.075.9.3,1.255,0,.5-.539.837-1.777,1.857-1.7a7.83,7.83,0,0,1,1.008.31c1.029.079.259-1.819,1.631-1.71.912.071,2.213-.418,2.292-1.43.038-.46-.418-.723-.376-1.066.046-.569.749-.744.795-1.317.063-.8-.615-.966-.527-2.091s1.795-.9,2.51-1.3a6.858,6.858,0,0,0,2.041-2.6,36.028,36.028,0,0,0,2.51-4.061l.134-.222C171.857,247.114,171.25,244.538,168.962,244.358Z" transform="translate(-50.658 20.948)" stroke="#fff" stroke-linejoin="round" stroke-width="0.5" fill-rule="evenodd"/>
    <path id="MSK" d="M62.867,541.27l-.756,1.076v.889l1.692.624h.85l.8-1.513.351-.671-.351-1.388Z" transform="translate(-2.102 -282.534)" fill="#ff4f12" stroke="#fff" stroke-width="0.5"/>
  </g>
</svg>
